<?xml version="1.0" encoding="UTF-8"?>
<svg xmlns="http://www.w3.org/2000/svg" xmlns:xlink="http://www.w3.org/1999/xlink" width="500pt" height="500pt" viewBox="0 0 500 500" version="1.1">
<g id="surface4777555">
<path style=" stroke:none;fill-rule:nonzero;fill:rgb(17.254902%,39.215687%,98.823529%);fill-opacity:1;" d="M 439.101562 120.039062 L 270.703125 25.390625 C 257.929688 18.242188 242.070312 18.242188 229.296875 25.390625 L 60.898438 120.039062 C 48.007812 127.265625 40 140.820312 40 155.351562 L 40 344.648438 C 40 359.179688 48.007812 372.734375 60.898438 379.960938 L 229.296875 474.609375 C 235.703125 478.203125 242.851562 480 250 480 C 257.148438 480 264.296875 478.203125 270.703125 474.609375 L 439.101562 379.960938 C 451.992188 372.734375 460 359.179688 460 344.648438 L 460 155.351562 C 460 140.820312 451.992188 127.265625 439.101562 120.039062 Z M 250 370 C 183.828125 370 130 316.171875 130 250 C 130 183.828125 183.828125 130 250 130 C 287.8125 130 322.734375 147.539062 345.429688 177.421875 L 301.601562 202.773438 C 288.4375 188.359375 269.726562 180 250 180 C 211.40625 180 180 211.40625 180 250 C 180 288.59375 211.40625 320 250 320 C 269.726562 320 288.4375 311.640625 301.601562 297.226562 L 345.429688 322.578125 C 322.734375 352.460938 287.8125 370 250 370 Z M 370 260 L 350 260 L 350 280 L 330 280 L 330 260 L 310 260 L 310 240 L 330 240 L 330 220 L 350 220 L 350 240 L 370 240 Z M 440 260 L 420 260 L 420 280 L 400 280 L 400 260 L 380 260 L 380 240 L 400 240 L 400 220 L 420 220 L 420 240 L 440 240 Z M 440 260 "/>
</g>
</svg>
