<?xml version="1.0" encoding="UTF-8"?>
<svg xmlns="http://www.w3.org/2000/svg" xmlns:xlink="http://www.w3.org/1999/xlink" width="512pt" height="512pt" viewBox="0 0 512 512" version="1.1">
<g id="surface4763771">
<path style=" stroke:none;fill-rule:nonzero;fill:rgb(16.078432%,38.431373%,100%);fill-opacity:1;" d="M 224 472 C 220.769531 472 217.792969 470.03125 216.566406 466.945312 C 200.648438 426.777344 171.015625 352 149 352 C 138.710938 352 128.535156 358.59375 128.441406 358.65625 C 125.671875 360.511719 122.03125 360.449219 119.328125 358.488281 L 19.328125 286.488281 C 16.976562 284.792969 15.71875 281.945312 16.054688 279.054688 C 16.390625 276.167969 18.273438 273.695312 20.960938 272.59375 L 152.6875 218.527344 C 158.566406 209.847656 181.390625 178.039062 206.128906 168.527344 C 209.863281 167.089844 212.984375 165.921875 215.640625 164.929688 C 229.023438 159.910156 229.023438 159.910156 239.265625 150.289062 L 241.527344 148.160156 C 255.441406 135.121094 281.984375 94.136719 290.191406 80.808594 C 291.136719 79.265625 292.144531 77.566406 293.207031 75.777344 C 302.144531 60.671875 314.375 40 333 40 C 354.359375 40 365.703125 62.007812 378.328125 90.792969 C 389.929688 117.246094 420.910156 204.855469 433.585938 242.449219 C 464.0625 332.902344 494.871094 395.847656 495.183594 396.472656 C 496.742188 399.648438 496.03125 403.480469 493.425781 405.886719 C 490.824219 408.296875 486.953125 408.703125 483.894531 406.871094 C 483.246094 406.488281 467.753906 397.097656 442.34375 371.65625 C 423.496094 352.792969 408.136719 344 394 344 C 369.128906 344 351.558594 363.777344 329.3125 388.824219 L 327.984375 390.320312 C 325.34375 393.289062 322.441406 396.695312 319.273438 400.398438 C 297.191406 426.246094 263.832031 465.320312 225.351562 471.894531 C 224.894531 471.96875 224.441406 472 224 472 Z M 149 336 C 178.542969 336 201.910156 386.976562 228.902344 454.679688 C 259.351562 445.921875 287.839844 412.558594 307.105469 390.007812 C 310.34375 386.214844 313.328125 382.71875 316.023438 379.6875 L 317.351562 378.191406 C 341.28125 351.257812 361.945312 328 394 328 C 418.238281 328 438.617188 345.289062 453.664062 360.34375 C 458.441406 365.128906 462.839844 369.304688 466.832031 372.929688 C 454.785156 345.457031 436.519531 301.257812 418.425781 247.550781 C 405.34375 208.734375 374.625 122.175781 363.679688 97.207031 C 351.953125 70.488281 343.59375 56 333 56 C 323.496094 56 313.152344 73.480469 306.96875 83.929688 C 305.855469 85.808594 304.800781 87.585938 303.808594 89.191406 C 303.480469 89.726562 270.855469 142.601562 252.472656 159.839844 L 250.222656 161.953125 C 238.007812 173.441406 237.199219 173.945312 221.265625 179.910156 C 218.648438 180.894531 215.566406 182.046875 211.871094 183.472656 C 192.550781 190.902344 171.296875 219.089844 164.734375 229.320312 C 163.847656 230.703125 162.558594 231.785156 161.039062 232.40625 L 40.367188 281.929688 L 124.519531 342.511719 C 129.929688 339.761719 139.121094 336 149 336 Z M 149 336 "/>
<path style=" stroke:none;fill-rule:nonzero;fill:rgb(16.078432%,38.431373%,100%);fill-opacity:1;" d="M 127.40625 359.238281 L 120.585938 344.769531 C 121.078125 344.535156 170.121094 320.808594 208.28125 261.664062 C 244.527344 205.480469 262.433594 161.609375 272.046875 138.039062 C 274.496094 132.039062 276.367188 127.480469 277.800781 124.519531 C 281.320312 117.230469 284.71875 108.464844 288.320312 99.175781 C 299.601562 70.078125 311.273438 40 333 40 L 333 56 C 322.222656 56 311.246094 84.296875 303.238281 104.960938 C 299.519531 114.550781 296 123.617188 292.207031 131.480469 C 290.871094 134.238281 289.152344 138.496094 286.863281 144.097656 C 277.046875 168.144531 258.785156 212.902344 221.726562 270.34375 C 180.953125 333.535156 129.574219 358.214844 127.40625 359.238281 Z M 127.40625 359.238281 "/>
<path style=" stroke:none;fill-rule:nonzero;fill:rgb(16.078432%,38.431373%,100%);fill-opacity:1;" d="M 209.199219 273.398438 L 153.199219 231.398438 L 162.800781 218.601562 L 218.800781 260.601562 Z M 209.199219 273.398438 "/>
<path style=" stroke:none;fill-rule:nonzero;fill:rgb(60.000002%,70.588237%,100%);fill-opacity:1;" d="M 305.382812 367.566406 C 330.335938 339.480469 353.929688 312.929688 392 312.023438 C 392 312.023438 365 193 342 95 C 337.328125 75.089844 335.464844 72 333.519531 72 C 332.199219 72 330.632812 74.921875 329.390625 81.648438 C 322.742188 117.574219 291.320312 251.375 266 316 C 256.328125 340.6875 239.03125 355.207031 224 362 C 217.121094 365.113281 207.199219 368 207.199219 368 C 217.609375 386.230469 227.496094 408.640625 237.671875 433.617188 C 259.160156 421.511719 280.175781 396.894531 294.9375 379.617188 C 298.246094 375.734375 301.304688 372.167969 304.070312 369.046875 Z M 305.382812 367.566406 "/>
</g>
</svg>
